<svg width="55" height="40" viewBox="0 0 55 40" fill="none" xmlns="http://www.w3.org/2000/svg">
<g clip-path="url(#clip0)">
<path d="M22.051 27.9091C22.051 30.1684 17.5739 32 12.0511 32C6.52823 32 2.05109 30.1684 2.05109 27.9091C2.05109 25.6498 0.687503 23.8182 12.0511 23.8182C23.4146 23.8182 22.051 25.6498 22.051 27.9091Z" fill="#D8B672"/>
<ellipse cx="12.051" cy="26.0909" rx="9.99997" ry="4.0909" fill="#F3CC80"/>
<path d="M23.051 24.9091C23.051 27.1684 18.5739 29 13.0511 29C7.52823 29 3.05109 27.1684 3.05109 24.9091C3.05109 22.6498 1.6875 20.8182 13.0511 20.8182C24.4146 20.8182 23.051 22.6498 23.051 24.9091Z" fill="#D8B672"/>
<ellipse cx="13.051" cy="23.0909" rx="9.99997" ry="4.0909" fill="#F3CC80"/>
<path d="M23.051 21.9091C23.051 24.1684 18.5739 26 13.0511 26C7.52823 26 3.05109 24.1684 3.05109 21.9091C3.05109 19.6498 1.6875 17.8182 13.0511 17.8182C24.4146 17.8182 23.051 19.6498 23.051 21.9091Z" fill="#D8B672"/>
<ellipse cx="13.051" cy="20.0909" rx="9.99997" ry="4.0909" fill="#F3CC80"/>
<path d="M21.051 19.9091C21.051 22.1684 16.5739 24 11.0511 24C5.52823 24 1.05109 22.1684 1.05109 19.9091C1.05109 17.6498 -0.312497 15.8182 11.0511 15.8182C22.4146 15.8182 21.051 17.6498 21.051 19.9091Z" fill="#D8B672"/>
<ellipse cx="11.051" cy="18.0909" rx="9.99997" ry="4.0909" fill="#F3CC80"/>
<path d="M20.051 16.9091C20.051 19.1684 15.5739 21 10.0511 21C4.52823 21 0.0510914 19.1684 0.0510914 16.9091C0.0510914 14.6498 -1.3125 12.8182 10.0511 12.8182C21.4146 12.8182 20.051 14.6498 20.051 16.9091Z" fill="#D8B672"/>
<ellipse cx="10.051" cy="15.0909" rx="9.99997" ry="4.0909" fill="#F3CC80"/>
<path d="M21.051 13.9091C21.051 16.1684 16.5739 18 11.0511 18C5.52823 18 1.05109 16.1684 1.05109 13.9091C1.05109 11.6498 -0.312497 9.81821 11.0511 9.81821C22.4146 9.81821 21.051 11.6498 21.051 13.9091Z" fill="#D8B672"/>
<ellipse cx="11.051" cy="12.0909" rx="9.99997" ry="4.0909" fill="#F3CC80"/>
<path d="M21.051 10.9091C21.051 13.1684 16.5739 15 11.0511 15C5.52823 15 1.05109 13.1684 1.05109 10.9091C1.05109 8.64976 -0.312497 6.81821 11.0511 6.81821C22.4146 6.81821 21.051 8.64976 21.051 10.9091Z" fill="#D8B672"/>
<ellipse cx="11.051" cy="9.0909" rx="9.99997" ry="4.0909" fill="#F3CC80"/>
<path d="M23.051 7.9091C23.051 10.1684 18.5739 12 13.0511 12C7.52823 12 3.05109 10.1684 3.05109 7.9091C3.05109 5.64976 1.6875 3.81821 13.0511 3.81821C24.4146 3.81821 23.051 5.64976 23.051 7.9091Z" fill="#D8B672"/>
<ellipse cx="13.051" cy="6.0909" rx="9.99997" ry="4.0909" fill="#F3CC80"/>
<path d="M22.051 5.9091C22.051 8.16844 17.5739 10 12.0511 10C6.52823 10 2.05109 8.16844 2.05109 5.9091C2.05109 3.64976 0.687503 1.81821 12.0511 1.81821C23.4146 1.81821 22.051 3.64976 22.051 5.9091Z" fill="#D8B672"/>
<ellipse cx="12.051" cy="4.0909" rx="9.99997" ry="4.0909" fill="#F3CC80"/>
<path d="M54.051 25.9091C54.051 28.1684 49.5739 30 44.0511 30C38.5282 30 34.0511 28.1684 34.0511 25.9091C34.0511 23.6498 32.6875 21.8182 44.0511 21.8182C55.4146 21.8182 54.051 23.6498 54.051 25.9091Z" fill="#D8B672"/>
<ellipse cx="44.051" cy="24.0909" rx="9.99997" ry="4.0909" fill="#F3CC80"/>
<path d="M55.051 22.9091C55.051 25.1684 50.5739 27 45.0511 27C39.5282 27 35.0511 25.1684 35.0511 22.9091C35.0511 20.6498 33.6875 18.8182 45.0511 18.8182C56.4146 18.8182 55.051 20.6498 55.051 22.9091Z" fill="#D8B672"/>
<ellipse cx="45.051" cy="21.0909" rx="9.99997" ry="4.0909" fill="#F3CC80"/>
<path d="M53.051 19.9091C53.051 22.1684 48.5739 24 43.0511 24C37.5282 24 33.0511 22.1684 33.0511 19.9091C33.0511 17.6498 31.6875 15.8182 43.0511 15.8182C54.4146 15.8182 53.051 17.6498 53.051 19.9091Z" fill="#D8B672"/>
<ellipse cx="43.051" cy="18.0909" rx="9.99997" ry="4.0909" fill="#F3CC80"/>
<path d="M54.051 17.9091C54.051 20.1684 49.5739 22 44.0511 22C38.5282 22 34.0511 20.1684 34.0511 17.9091C34.0511 15.6498 32.6875 13.8182 44.0511 13.8182C55.4146 13.8182 54.051 15.6498 54.051 17.9091Z" fill="#D8B672"/>
<ellipse cx="44.051" cy="16.0909" rx="9.99997" ry="4.0909" fill="#F3CC80"/>
<path d="M55.051 14.9091C55.051 17.1684 50.5739 19 45.0511 19C39.5282 19 35.0511 17.1684 35.0511 14.9091C35.0511 12.6498 33.6875 10.8182 45.0511 10.8182C56.4146 10.8182 55.051 12.6498 55.051 14.9091Z" fill="#D8B672"/>
<ellipse cx="45.051" cy="13.0909" rx="9.99997" ry="4.0909" fill="#F3CC80"/>
<path d="M55.051 11.9091C55.051 14.1684 50.5739 16 45.0511 16C39.5282 16 35.0511 14.1684 35.0511 11.9091C35.0511 9.64976 33.6875 7.81821 45.0511 7.81821C56.4146 7.81821 55.051 9.64976 55.051 11.9091Z" fill="#D8B672"/>
<ellipse cx="45.051" cy="10.0909" rx="9.99997" ry="4.0909" fill="#F3CC80"/>
<path d="M39.051 35.9091C39.051 38.1684 34.5739 40 29.0511 40C23.5282 40 19.0511 38.1684 19.0511 35.9091C19.0511 33.6498 17.6875 31.8182 29.0511 31.8182C40.4146 31.8182 39.051 33.6498 39.051 35.9091Z" fill="#D8B672"/>
<ellipse cx="29.051" cy="34.0909" rx="9.99997" ry="4.0909" fill="#F3CC80"/>
<path d="M38.051 32.9091C38.051 35.1684 33.5739 37 28.0511 37C22.5282 37 18.0511 35.1684 18.0511 32.9091C18.0511 30.6498 16.6875 28.8182 28.0511 28.8182C39.4146 28.8182 38.051 30.6498 38.051 32.9091Z" fill="#D8B672"/>
<ellipse cx="28.051" cy="31.0909" rx="9.99997" ry="4.0909" fill="#F3CC80"/>
<path d="M39.051 30.9091C39.051 33.1684 34.5739 35 29.0511 35C23.5282 35 19.0511 33.1684 19.0511 30.9091C19.0511 28.6498 17.6875 26.8182 29.0511 26.8182C40.4146 26.8182 39.051 28.6498 39.051 30.9091Z" fill="#D8B672"/>
<ellipse cx="29.051" cy="29.0909" rx="9.99997" ry="4.0909" fill="#F3CC80"/>
</g>
<defs>
<clipPath id="clip0">
<rect width="55" height="40" fill="white"/>
</clipPath>
</defs>
</svg>
