<svg width="125" height="36" viewBox="0 0 125 36" fill="none" xmlns="http://www.w3.org/2000/svg">
<defs>
<linearGradient id="paint0_linear" x1="5.10525" y1="0" x2="5.10525" y2="35.8568" gradientUnits="userSpaceOnUse">
<stop stop-color="#E8D98C"/>
<stop offset="1" stop-color="#E29C7D"/>
</linearGradient>
</defs>
<path d="M10.7878 15.229C9.99375 12.96 11.6413 10.4101 14.0653 10.4101C16.4892 10.4101 18.1368 12.96 17.3427 15.229C16.0611 18.8913 14.7884 23.9282 15.7164 27.7204C15.9458 28.6579 16.3543 29.7014 16.8159 30.7063C17.7577 32.7566 16.3389 35.2785 14.0653 35.2785C11.7916 35.2785 10.3729 32.7566 11.3147 30.7063C11.7763 29.7014 12.1847 28.6579 12.4141 27.7204C13.3421 23.9282 12.0695 18.8913 10.7878 15.229Z" fill="url(#paint0_linear)"/>
<path d="M23.4959 24.7154C24.2014 27.0301 22.4892 29.4951 20.0487 29.4951C17.6081 29.4951 15.8959 27.0301 16.6014 24.7153C17.9381 20.3298 19.4424 13.7999 18.4434 8.9642C18.1648 7.61602 17.6198 6.05161 17.0411 4.61068C16.1787 2.46326 17.7159 -2.02048e-07 20.0487 0C22.3814 2.02048e-07 23.9186 2.46326 23.0562 4.61068C22.4775 6.05161 21.9325 7.61602 21.654 8.9642C20.6549 13.7999 22.1592 20.3298 23.4959 24.7154Z" fill="url(#paint0_linear)"/>
<path d="M22.3764 35.2621C20.5728 37.0582 18.0065 35.309 18.7036 32.8714C18.991 31.8665 19.837 31.1205 20.8206 30.7445C22.8152 29.9818 25.768 28.1852 24.5726 24.4346C23.5903 21.3528 22.919 17.9566 22.525 15.6187C22.2659 14.0819 23.4758 12.7233 25.0485 12.7234C27.0213 12.7234 28.4005 14.8622 27.8949 16.7515C27.2997 18.976 26.8586 21.9124 27.3454 25.013C27.9221 28.6862 25.2086 32.4414 22.3764 35.2621Z" fill="url(#paint0_linear)"/>
<path d="M6.26622 35.3127C7.84616 36.3059 9.67921 35.0232 9.5459 33.1741C9.45859 31.9631 8.50759 30.9901 7.33236 30.6463C5.0778 29.9869 1.93373 28.4324 3.12013 25.013C5.33724 18.623 5.18817 13.474 4.88362 10.8993C4.75782 9.8357 3.82527 9.10879 2.74439 9.10879C0.90836 9.1088 -0.39213 11.1732 0.107757 12.9235C0.942634 15.8468 1.60712 20.2972 0.493287 25.7359C-0.40971 30.1452 3.26331 33.4249 6.26622 35.3127Z" fill="url(#paint0_linear)"/>
<path d="M11.1043 24.7617C11.8456 27.0219 10.1889 29.4951 7.79009 29.4951C5.39131 29.4951 3.73462 27.0219 4.47593 24.7617C5.76973 20.8169 7.13495 15.1834 6.1848 10.977C5.9345 9.86893 5.46712 8.61019 4.95348 7.42141C4.05909 5.35143 5.51738 2.89168 7.79009 2.89168C10.0628 2.89168 11.5211 5.35143 10.6267 7.42141C10.1131 8.61019 9.64568 9.86893 9.39538 10.977C8.44523 15.1834 9.81045 20.8169 11.1043 24.7617Z" fill="url(#paint0_linear)"/>
<path d="M45.9277 5.1875C46.1491 5.1875 46.3053 5.23958 46.3965 5.34375C46.4941 5.44141 46.543 5.61068 46.543 5.85156V16.6719H47.3438C47.5651 16.6719 47.7214 16.724 47.8125 16.8281C47.9102 16.9258 47.959 17.0951 47.959 17.3359C47.959 17.5768 47.9102 17.7493 47.8125 17.8535C47.7214 17.9512 47.5651 18 47.3438 18H45.791C45.5697 18 45.4102 17.9512 45.3125 17.8535C45.2214 17.7493 45.1758 17.5768 45.1758 17.3359V16.5547C44.7656 17.0885 44.2904 17.4987 43.75 17.7852C43.2096 18.0716 42.6204 18.2148 41.9824 18.2148C41.1751 18.2148 40.4525 18.026 39.8145 17.6484C39.1764 17.2643 38.6751 16.7174 38.3105 16.0078C37.946 15.2917 37.7637 14.4518 37.7637 13.4883C37.7637 12.5247 37.946 11.6882 38.3105 10.9785C38.6751 10.2624 39.1764 9.71549 39.8145 9.33789C40.4525 8.95378 41.1751 8.76172 41.9824 8.76172C43.2064 8.76172 44.2383 9.29883 45.0781 10.373V6.51562H43.4961C43.2747 6.51562 43.1152 6.4668 43.0176 6.36914C42.9264 6.26497 42.8809 6.09245 42.8809 5.85156C42.8809 5.61068 42.9264 5.44141 43.0176 5.34375C43.1152 5.23958 43.2747 5.1875 43.4961 5.1875H45.9277ZM42.0801 10.207C41.5007 10.207 41.0026 10.347 40.5859 10.627C40.1693 10.9004 39.8503 11.2845 39.6289 11.7793C39.4141 12.2741 39.3066 12.8438 39.3066 13.4883C39.3066 14.1328 39.4141 14.7025 39.6289 15.1973C39.8503 15.6921 40.1693 16.0794 40.5859 16.3594C41.0026 16.6328 41.5007 16.7695 42.0801 16.7695C42.6595 16.7695 43.1738 16.6393 43.623 16.3789C44.0788 16.1185 44.4336 15.7409 44.6875 15.2461C44.9479 14.7513 45.0781 14.1654 45.0781 13.4883C45.0781 12.8112 44.9479 12.2253 44.6875 11.7305C44.4336 11.2357 44.0788 10.8581 43.623 10.5977C43.1738 10.3372 42.6595 10.207 42.0801 10.207ZM57.5996 8.76172C58.5436 8.76172 59.3477 8.95378 60.0117 9.33789C60.6823 9.71549 61.1966 10.2428 61.5547 10.9199C61.9128 11.5905 62.1178 12.3652 62.1699 13.2441C62.1699 13.4655 62.1211 13.6217 62.0234 13.7129C61.9323 13.804 61.776 13.8496 61.5547 13.8496H54.4844C54.5299 14.8197 54.8164 15.5553 55.3438 16.0566C55.8776 16.5514 56.6296 16.7988 57.5996 16.7988C58.1986 16.7988 58.791 16.724 59.377 16.5742C59.9629 16.418 60.4772 16.2129 60.9199 15.959C61.0306 15.9004 61.1315 15.8711 61.2227 15.8711C61.4505 15.8711 61.6361 16.0436 61.7793 16.3887C61.8379 16.5254 61.8672 16.6491 61.8672 16.7598C61.8672 17.0202 61.724 17.222 61.4375 17.3652C60.9362 17.6191 60.3438 17.8242 59.6602 17.9805C58.9766 18.1367 58.2897 18.2148 57.5996 18.2148C56.6165 18.2148 55.7767 18.026 55.0801 17.6484C54.3835 17.2708 53.8529 16.7272 53.4883 16.0176C53.1237 15.3079 52.9414 14.4648 52.9414 13.4883C52.9414 12.5573 53.14 11.7337 53.5371 11.0176C53.9342 10.3014 54.4844 9.74805 55.1875 9.35742C55.8906 8.96029 56.6947 8.76172 57.5996 8.76172ZM57.5996 10.1777C56.7988 10.1777 56.1348 10.3828 55.6074 10.793C55.0866 11.1966 54.7448 11.7598 54.582 12.4824H60.5488C60.4121 11.7337 60.0964 11.1641 59.6016 10.7734C59.1133 10.3763 58.446 10.1777 57.5996 10.1777ZM77.3965 8.97656C77.6178 8.97656 77.7741 9.02865 77.8652 9.13281C77.9629 9.23047 78.0117 9.39974 78.0117 9.64062C78.0117 9.88151 77.9629 10.054 77.8652 10.1582C77.7741 10.2559 77.6178 10.3047 77.3965 10.3047H76.7812L73.627 17.5801C73.5358 17.8014 73.3991 17.9609 73.2168 18.0586C73.041 18.1628 72.7936 18.2148 72.4746 18.2148C72.1621 18.2148 71.918 18.1628 71.7422 18.0586C71.5729 17.9609 71.4395 17.8014 71.3418 17.5801L68.2168 10.3047H67.6113C67.39 10.3047 67.2305 10.2559 67.1328 10.1582C67.0417 10.054 66.9961 9.88151 66.9961 9.64062C66.9961 9.39974 67.0417 9.23047 67.1328 9.13281C67.2305 9.02865 67.39 8.97656 67.6113 8.97656H71.0684C71.2897 8.97656 71.446 9.02865 71.5371 9.13281C71.6348 9.23047 71.6836 9.39974 71.6836 9.64062C71.6836 9.88151 71.6348 10.054 71.5371 10.1582C71.446 10.2559 71.2897 10.3047 71.0684 10.3047H69.8184L72.4844 16.6719L75.1797 10.3047H74.3301C74.1087 10.3047 73.9492 10.2559 73.8516 10.1582C73.7604 10.054 73.7148 9.88151 73.7148 9.64062C73.7148 9.39974 73.7604 9.23047 73.8516 9.13281C73.9492 9.02865 74.1087 8.97656 74.3301 8.97656H77.3965ZM92.3887 8.97656C92.61 8.97656 92.7663 9.02865 92.8574 9.13281C92.9551 9.23047 93.0039 9.39974 93.0039 9.64062C93.0039 9.88151 92.9551 10.054 92.8574 10.1582C92.7663 10.2559 92.61 10.3047 92.3887 10.3047H91.7832L87.7891 18.4883C87.3659 19.3542 86.9525 20.0345 86.5488 20.5293C86.1452 21.0241 85.6895 21.3854 85.1816 21.6133C84.6803 21.8477 84.0684 21.9779 83.3457 22.0039C83.1178 22.0104 82.9421 21.9518 82.8184 21.8281C82.6947 21.7109 82.6328 21.4993 82.6328 21.1934C82.6328 20.7702 82.8053 20.5488 83.1504 20.5293C83.7754 20.4967 84.2702 20.3926 84.6348 20.2168C85.0059 20.041 85.3444 19.7383 85.6504 19.3086C85.9629 18.8854 86.3438 18.2214 86.793 17.3164L83.2188 10.3047H82.6035C82.3822 10.3047 82.2227 10.2559 82.125 10.1582C82.0339 10.054 81.9883 9.88151 81.9883 9.64062C81.9883 9.39974 82.0339 9.23047 82.125 9.13281C82.2227 9.02865 82.3822 8.97656 82.6035 8.97656H86.0605C86.2819 8.97656 86.4382 9.02865 86.5293 9.13281C86.627 9.23047 86.6758 9.39974 86.6758 9.64062C86.6758 9.88151 86.627 10.054 86.5293 10.1582C86.4382 10.2559 86.2819 10.3047 86.0605 10.3047H84.8105L87.5645 15.793L90.1914 10.3047H89.3223C89.1009 10.3047 88.9414 10.2559 88.8438 10.1582C88.7526 10.054 88.707 9.88151 88.707 9.64062C88.707 9.39974 88.7526 9.23047 88.8438 9.13281C88.9414 9.02865 89.1009 8.97656 89.3223 8.97656H92.3887ZM103.592 8.76172C104.184 8.76172 104.699 8.89193 105.135 9.15234C105.571 9.40625 105.906 9.77409 106.141 10.2559C106.375 10.7376 106.492 11.3008 106.492 11.9453V16.6719H107.293C107.514 16.6719 107.671 16.724 107.762 16.8281C107.859 16.9258 107.908 17.0951 107.908 17.3359C107.908 17.5768 107.859 17.7493 107.762 17.8535C107.671 17.9512 107.514 18 107.293 18H104.129C103.908 18 103.748 17.9512 103.65 17.8535C103.559 17.7493 103.514 17.5768 103.514 17.3359C103.514 17.0951 103.559 16.9258 103.65 16.8281C103.748 16.724 103.908 16.6719 104.129 16.6719H105.027V12.0918C105.027 11.5124 104.894 11.0534 104.627 10.7148C104.36 10.3763 103.966 10.207 103.445 10.207C102.892 10.207 102.374 10.3665 101.893 10.6855C101.417 11.0046 101.036 11.444 100.75 12.0039C100.464 12.5638 100.32 13.1888 100.32 13.8789V16.6719H101.219C101.44 16.6719 101.596 16.724 101.688 16.8281C101.785 16.9258 101.834 17.0951 101.834 17.3359C101.834 17.5768 101.785 17.7493 101.688 17.8535C101.596 17.9512 101.44 18 101.219 18H98.0547C97.8333 18 97.6738 17.9512 97.5762 17.8535C97.485 17.7493 97.4395 17.5768 97.4395 17.3359C97.4395 17.0951 97.485 16.9258 97.5762 16.8281C97.6738 16.724 97.8333 16.6719 98.0547 16.6719H98.8555V10.3047H97.8594C97.638 10.3047 97.4785 10.2559 97.3809 10.1582C97.2897 10.054 97.2441 9.88151 97.2441 9.64062C97.2441 9.39974 97.2897 9.23047 97.3809 9.13281C97.4785 9.02865 97.638 8.97656 97.8594 8.97656H99.6074C99.8288 8.97656 99.985 9.02865 100.076 9.13281C100.174 9.23047 100.223 9.39974 100.223 9.64062V10.8125C100.652 10.1484 101.154 9.64062 101.727 9.28906C102.306 8.9375 102.928 8.76172 103.592 8.76172ZM117.568 8.76172C118.512 8.76172 119.316 8.95378 119.98 9.33789C120.651 9.71549 121.165 10.2428 121.523 10.9199C121.882 11.5905 122.087 12.3652 122.139 13.2441C122.139 13.4655 122.09 13.6217 121.992 13.7129C121.901 13.804 121.745 13.8496 121.523 13.8496H114.453C114.499 14.8197 114.785 15.5553 115.312 16.0566C115.846 16.5514 116.598 16.7988 117.568 16.7988C118.167 16.7988 118.76 16.724 119.346 16.5742C119.932 16.418 120.446 16.2129 120.889 15.959C120.999 15.9004 121.1 15.8711 121.191 15.8711C121.419 15.8711 121.605 16.0436 121.748 16.3887C121.807 16.5254 121.836 16.6491 121.836 16.7598C121.836 17.0202 121.693 17.222 121.406 17.3652C120.905 17.6191 120.312 17.8242 119.629 17.9805C118.945 18.1367 118.258 18.2148 117.568 18.2148C116.585 18.2148 115.745 18.026 115.049 17.6484C114.352 17.2708 113.822 16.7272 113.457 16.0176C113.092 15.3079 112.91 14.4648 112.91 13.4883C112.91 12.5573 113.109 11.7337 113.506 11.0176C113.903 10.3014 114.453 9.74805 115.156 9.35742C115.859 8.96029 116.663 8.76172 117.568 8.76172ZM117.568 10.1777C116.768 10.1777 116.104 10.3828 115.576 10.793C115.055 11.1966 114.714 11.7598 114.551 12.4824H120.518C120.381 11.7337 120.065 11.1641 119.57 10.7734C119.082 10.3763 118.415 10.1777 117.568 10.1777Z" fill="#8C8C8C"/>
<path d="M42.6421 25.457C42.8023 25.457 42.9155 25.4863 42.982 25.5449C43.0484 25.6035 43.0816 25.7012 43.0816 25.8379V26.9512C43.0816 27.0879 43.0484 27.1855 42.982 27.2441C42.9155 27.3027 42.8023 27.332 42.6421 27.332C42.5093 27.332 42.4155 27.2812 42.3609 27.1797C42.1929 26.8594 41.9487 26.6348 41.6284 26.5059C41.3081 26.373 40.9019 26.3066 40.4097 26.3066C40.0308 26.3066 39.7339 26.375 39.5191 26.5117C39.3081 26.6445 39.2027 26.832 39.2027 27.0742C39.2027 27.1992 39.2417 27.3008 39.3198 27.3789C39.4019 27.457 39.521 27.5215 39.6773 27.5723C39.8062 27.6152 39.9546 27.6484 40.1226 27.6719C40.2945 27.6953 40.5152 27.7207 40.7847 27.748C41.1636 27.791 41.4683 27.832 41.6987 27.8711C41.9331 27.9062 42.1538 27.9609 42.3609 28.0352C42.6734 28.1484 42.9155 28.3125 43.0874 28.5273C43.2632 28.7422 43.3511 29.0254 43.3511 29.377C43.3511 29.7285 43.2612 30.0371 43.0816 30.3027C42.9058 30.5645 42.646 30.7676 42.3023 30.9121C41.9624 31.0566 41.5542 31.1289 41.0777 31.1289C40.6558 31.1289 40.2847 31.0703 39.9644 30.9531C39.6441 30.8359 39.3648 30.6582 39.1265 30.4199V30.748C39.1265 30.8848 39.0933 30.9824 39.0269 31.041C38.9605 31.0996 38.8472 31.1289 38.687 31.1289C38.5269 31.1289 38.4136 31.0996 38.3472 31.041C38.2808 30.9824 38.2476 30.8848 38.2476 30.748V29.3418C38.2476 29.2051 38.2808 29.1074 38.3472 29.0488C38.4136 28.9902 38.5269 28.9609 38.687 28.9609C38.7691 28.9609 38.8335 28.9805 38.8804 29.0195C38.9273 29.0547 38.9683 29.1152 39.0034 29.2012C39.1441 29.5762 39.3784 29.8496 39.7066 30.0215C40.0347 30.1934 40.4722 30.2793 41.0191 30.2793C41.4722 30.2793 41.8198 30.1973 42.062 30.0332C42.3042 29.8691 42.4253 29.6504 42.4253 29.377C42.4253 29.2441 42.3823 29.1348 42.2964 29.0488C42.2105 28.9629 42.0874 28.8926 41.9273 28.8379C41.7905 28.7949 41.6323 28.7598 41.4527 28.7324C41.2769 28.7012 41.0523 28.6719 40.7788 28.6445C40.4116 28.6055 40.105 28.5645 39.8589 28.5215C39.6128 28.4785 39.3862 28.416 39.1792 28.334C38.8941 28.2207 38.6714 28.0645 38.5112 27.8652C38.355 27.6621 38.2769 27.3984 38.2769 27.0742C38.2769 26.7344 38.3648 26.4434 38.5405 26.2012C38.7202 25.9551 38.9663 25.7695 39.2788 25.6445C39.5952 25.5195 39.9527 25.457 40.3511 25.457C40.73 25.457 41.0757 25.5137 41.3882 25.627C41.7046 25.7402 41.9761 25.8984 42.2027 26.1016V25.8379C42.2027 25.7012 42.2359 25.6035 42.3023 25.5449C42.3687 25.4863 42.482 25.457 42.6421 25.457ZM48.7117 25.457C49.2469 25.457 49.7293 25.5781 50.159 25.8203C50.5887 26.0625 50.9246 26.4004 51.1668 26.834C51.4129 27.2637 51.5359 27.75 51.5359 28.293C51.5359 28.8359 51.4129 29.3242 51.1668 29.7578C50.9246 30.1875 50.5887 30.5234 50.159 30.7656C49.7293 31.0078 49.2469 31.1289 48.7117 31.1289C48.1766 31.1289 47.6941 31.0078 47.2645 30.7656C46.8348 30.5234 46.4969 30.1875 46.2508 29.7578C46.0086 29.3242 45.8875 28.8359 45.8875 28.293C45.8875 27.75 46.0086 27.2637 46.2508 26.834C46.4969 26.4004 46.8348 26.0625 47.2645 25.8203C47.6941 25.5781 48.1766 25.457 48.7117 25.457ZM48.7117 26.3242C48.3328 26.3242 47.9988 26.4082 47.7098 26.5762C47.4246 26.7402 47.2039 26.9727 47.0477 27.2734C46.8914 27.5703 46.8133 27.9102 46.8133 28.293C46.8133 28.6758 46.8914 29.0176 47.0477 29.3184C47.2039 29.6152 47.4246 29.8477 47.7098 30.0156C47.9988 30.1797 48.3328 30.2617 48.7117 30.2617C49.0906 30.2617 49.4227 30.1797 49.7078 30.0156C49.9969 29.8477 50.2195 29.6152 50.3758 29.3184C50.532 29.0176 50.6102 28.6758 50.6102 28.293C50.6102 27.9102 50.532 27.5703 50.3758 27.2734C50.2195 26.9727 49.9969 26.7402 49.7078 26.5762C49.4227 26.4082 49.0906 26.3242 48.7117 26.3242ZM57.7169 23.2832C58.2403 23.2832 58.7598 23.3828 59.2755 23.582C59.463 23.6523 59.5567 23.7812 59.5567 23.9688C59.5567 24.0117 59.5509 24.0625 59.5391 24.1211C59.4845 24.3438 59.3868 24.4551 59.2462 24.4551C59.2032 24.4551 59.1563 24.4453 59.1055 24.4258C58.6095 24.2344 58.1466 24.1387 57.7169 24.1387C56.9278 24.1387 56.5333 24.5625 56.5333 25.4102V26.0547H58.5606C58.6934 26.0547 58.7872 26.0859 58.8419 26.1484C58.9005 26.207 58.9298 26.3086 58.9298 26.4531C58.9298 26.5977 58.9005 26.7012 58.8419 26.7637C58.7872 26.8223 58.6934 26.8516 58.5606 26.8516H56.5333V30.2031H58.5606C58.6934 30.2031 58.7872 30.2344 58.8419 30.2969C58.9005 30.3555 58.9298 30.457 58.9298 30.6016C58.9298 30.7461 58.9005 30.8496 58.8419 30.9121C58.7872 30.9707 58.6934 31 58.5606 31H54.4942C54.3614 31 54.2657 30.9707 54.2071 30.9121C54.1524 30.8496 54.1251 30.7461 54.1251 30.6016C54.1251 30.457 54.1524 30.3555 54.2071 30.2969C54.2657 30.2344 54.3614 30.2031 54.4942 30.2031H55.6544V26.8516H54.4942C54.3614 26.8516 54.2657 26.8223 54.2071 26.7637C54.1524 26.7012 54.1251 26.5977 54.1251 26.4531C54.1251 26.3086 54.1524 26.207 54.2071 26.1484C54.2657 26.0859 54.3614 26.0547 54.4942 26.0547H55.6544V25.334C55.6544 24.6895 55.8341 24.1875 56.1934 23.8281C56.5567 23.4648 57.0645 23.2832 57.7169 23.2832ZM63.6283 23.916C63.7884 23.916 63.9017 23.9453 63.9681 24.0039C64.0345 24.0625 64.0677 24.1602 64.0677 24.2969V26.0547H66.4759C66.6087 26.0547 66.7025 26.0859 66.7572 26.1484C66.8158 26.207 66.8451 26.3086 66.8451 26.4531C66.8451 26.5977 66.8158 26.7012 66.7572 26.7637C66.7025 26.8223 66.6087 26.8516 66.4759 26.8516H64.0677V28.9844C64.0677 29.4297 64.1439 29.7559 64.2962 29.9629C64.4525 30.1699 64.722 30.2734 65.1048 30.2734C65.3666 30.2734 65.642 30.2207 65.931 30.1152C66.2201 30.0098 66.4994 29.8691 66.7689 29.6934C66.8236 29.6543 66.8841 29.6348 66.9505 29.6348C67.0834 29.6348 67.1966 29.7246 67.2904 29.9043C67.3412 30.0059 67.3666 30.0938 67.3666 30.168C67.3666 30.293 67.3021 30.3945 67.1732 30.4727C66.8685 30.6641 66.5287 30.8223 66.1537 30.9473C65.7787 31.0684 65.4291 31.1289 65.1048 31.1289C64.4408 31.1289 63.9545 30.957 63.6459 30.6133C63.3412 30.2656 63.1888 29.748 63.1888 29.0605V26.8516H61.9994C61.8666 26.8516 61.7709 26.8223 61.7123 26.7637C61.6576 26.7012 61.6302 26.5977 61.6302 26.4531C61.6302 26.3086 61.6576 26.207 61.7123 26.1484C61.7709 26.0859 61.8666 26.0547 61.9994 26.0547H63.1888V24.2969C63.1888 24.1602 63.222 24.0625 63.2884 24.0039C63.3548 23.9453 63.4681 23.916 63.6283 23.916ZM75.7448 25.5859C75.8776 25.5859 75.9713 25.6172 76.026 25.6797C76.0846 25.7383 76.1139 25.8398 76.1139 25.9844C76.1139 26.1289 76.0846 26.2324 76.026 26.2949C75.9713 26.3535 75.8776 26.3828 75.7448 26.3828H75.6041L74.4498 30.748C74.4108 30.8887 74.3522 30.9863 74.2741 31.041C74.1998 31.0996 74.0885 31.1289 73.9401 31.1289C73.7721 31.1289 73.6393 31.0977 73.5416 31.0352C73.4479 30.9766 73.3776 30.8809 73.3307 30.748L72.4342 28.2051L71.526 30.748C71.4791 30.8809 71.4049 30.9766 71.3034 31.0352C71.2057 31.0977 71.0729 31.1289 70.9049 31.1289C70.7565 31.1289 70.6452 31.0996 70.5709 31.041C70.4967 30.9863 70.442 30.8887 70.4069 30.748L69.276 26.3828H69.1705C69.0377 26.3828 68.942 26.3535 68.8834 26.2949C68.8288 26.2324 68.8014 26.1289 68.8014 25.9844C68.8014 25.8398 68.8288 25.7383 68.8834 25.6797C68.942 25.6172 69.0377 25.5859 69.1705 25.5859H70.8932C71.026 25.5859 71.1198 25.6172 71.1745 25.6797C71.233 25.7383 71.2623 25.8398 71.2623 25.9844C71.2623 26.1289 71.233 26.2324 71.1745 26.2949C71.1198 26.3535 71.026 26.3828 70.8932 26.3828H70.1725L71.0163 29.793L71.9948 27.0742C72.0221 26.9922 72.0729 26.9258 72.1471 26.875C72.2213 26.8242 72.319 26.7988 72.4401 26.7988C72.6862 26.7988 72.8366 26.877 72.8913 27.0332L73.8639 29.793L74.7311 26.3828H74.1393C74.0065 26.3828 73.9108 26.3535 73.8522 26.2949C73.7975 26.2324 73.7702 26.1289 73.7702 25.9844C73.7702 25.8398 73.7975 25.7383 73.8522 25.6797C73.9108 25.6172 74.0065 25.5859 74.1393 25.5859H75.7448ZM80.3964 25.457C81.1308 25.457 81.6816 25.6211 82.0487 25.9492C82.4159 26.2773 82.5995 26.7637 82.5995 27.4082V29.7402C82.5995 30.0488 82.7284 30.2031 82.9862 30.2031H83.1913C83.3241 30.2031 83.4179 30.2344 83.4726 30.2969C83.5312 30.3555 83.5605 30.457 83.5605 30.6016C83.5605 30.7461 83.5312 30.8496 83.4726 30.9121C83.4179 30.9707 83.3241 31 83.1913 31H82.8163C82.5624 31 82.3437 30.9375 82.1601 30.8125C81.9804 30.6836 81.8632 30.4961 81.8085 30.25C81.4882 30.5312 81.1405 30.748 80.7655 30.9004C80.3945 31.0527 79.9999 31.1289 79.582 31.1289C79.1874 31.1289 78.8378 31.0625 78.5331 30.9297C78.2323 30.793 77.996 30.5957 77.8241 30.3379C77.6523 30.0801 77.5663 29.7734 77.5663 29.418C77.5663 28.8008 77.787 28.3457 78.2284 28.0527C78.6698 27.7559 79.2402 27.6074 79.9394 27.6074C80.5605 27.6074 81.1542 27.707 81.7206 27.9062V27.4082C81.7206 27.0293 81.6132 26.752 81.3984 26.5762C81.1874 26.3965 80.8456 26.3066 80.373 26.3066C80.08 26.3066 79.7753 26.3477 79.4589 26.4297C79.1425 26.5117 78.8417 26.625 78.5566 26.7695C78.4902 26.8047 78.4296 26.8223 78.3749 26.8223C78.246 26.8223 78.1386 26.7285 78.0527 26.541C78.0097 26.4473 77.9882 26.3691 77.9882 26.3066C77.9882 26.1699 78.0605 26.0645 78.205 25.9902C78.5331 25.8184 78.8847 25.6875 79.2597 25.5977C79.6386 25.5039 80.0175 25.457 80.3964 25.457ZM79.9452 28.4336C79.496 28.4336 79.1405 28.5117 78.8788 28.668C78.621 28.8203 78.4921 29.0645 78.4921 29.4004C78.4921 29.6855 78.5898 29.9082 78.7851 30.0684C78.9843 30.2246 79.2616 30.3027 79.6171 30.3027C80.3945 30.3027 81.0956 29.9805 81.7206 29.3359V28.6973C81.455 28.6113 81.1698 28.5469 80.8652 28.5039C80.5605 28.457 80.2538 28.4336 79.9452 28.4336ZM90.0812 25.457C90.3859 25.457 90.6711 25.5352 90.9367 25.6914C91.093 25.7852 91.1711 25.9062 91.1711 26.0547C91.1711 26.125 91.1535 26.207 91.1184 26.3008C91.0363 26.5234 90.923 26.6348 90.7785 26.6348C90.7199 26.6348 90.6652 26.6191 90.6145 26.5879C90.423 26.4824 90.218 26.4297 89.9992 26.4297C89.6477 26.4297 89.2941 26.5527 88.9387 26.7988C88.5832 27.041 88.2902 27.3652 88.0598 27.7715C87.8332 28.1777 87.7199 28.6094 87.7199 29.0664V30.2031H89.6945C89.8273 30.2031 89.9211 30.2344 89.9758 30.2969C90.0344 30.3555 90.0637 30.457 90.0637 30.6016C90.0637 30.7461 90.0344 30.8496 89.9758 30.9121C89.9211 30.9707 89.8273 31 89.6945 31H85.9211C85.7883 31 85.6926 30.9707 85.634 30.9121C85.5793 30.8496 85.552 30.7461 85.552 30.6016C85.552 30.457 85.5793 30.3555 85.634 30.2969C85.6926 30.2344 85.7883 30.2031 85.9211 30.2031H86.841V26.3828H86.0969C85.9641 26.3828 85.8684 26.3535 85.8098 26.2949C85.7551 26.2324 85.7277 26.1289 85.7277 25.9844C85.7277 25.8398 85.7551 25.7383 85.8098 25.6797C85.8684 25.6172 85.9641 25.5859 86.0969 25.5859H87.2922C87.425 25.5859 87.5187 25.6172 87.5734 25.6797C87.632 25.7383 87.6613 25.8398 87.6613 25.9844V27.168C87.8488 26.8242 88.0754 26.5234 88.341 26.2656C88.6066 26.0078 88.8898 25.8086 89.1906 25.668C89.4914 25.5273 89.7883 25.457 90.0812 25.457ZM96.2563 25.457C96.8227 25.457 97.3052 25.5723 97.7036 25.8027C98.1059 26.0293 98.4145 26.3457 98.6294 26.752C98.8442 27.1543 98.9673 27.6191 98.9985 28.1465C98.9985 28.2793 98.9692 28.373 98.9106 28.4277C98.8559 28.4824 98.7622 28.5098 98.6294 28.5098H94.3872C94.4145 29.0918 94.5864 29.5332 94.9028 29.834C95.2231 30.1309 95.6743 30.2793 96.2563 30.2793C96.6157 30.2793 96.9712 30.2344 97.3227 30.1445C97.6743 30.0508 97.9829 29.9277 98.2485 29.7754C98.3149 29.7402 98.3755 29.7227 98.4302 29.7227C98.5669 29.7227 98.6782 29.8262 98.7641 30.0332C98.7993 30.1152 98.8169 30.1895 98.8169 30.2559C98.8169 30.4121 98.7309 30.5332 98.5591 30.6191C98.2583 30.7715 97.9028 30.8945 97.4927 30.9883C97.0825 31.082 96.6704 31.1289 96.2563 31.1289C95.6665 31.1289 95.1626 31.0156 94.7446 30.7891C94.3266 30.5625 94.0083 30.2363 93.7895 29.8105C93.5708 29.3848 93.4614 28.8789 93.4614 28.293C93.4614 27.7344 93.5805 27.2402 93.8188 26.8105C94.0571 26.3809 94.3872 26.0488 94.8091 25.8145C95.2309 25.5762 95.7134 25.457 96.2563 25.457ZM96.2563 26.3066C95.7759 26.3066 95.3774 26.4297 95.061 26.6758C94.7485 26.918 94.5434 27.2559 94.4458 27.6895H98.0259C97.9438 27.2402 97.7544 26.8984 97.4575 26.6641C97.1645 26.4258 96.7641 26.3066 96.2563 26.3066Z" fill="#8C8C8C"/>
</svg>
