<svg width="123" height="36" viewBox="0 0 123 36" fill="none" xmlns="http://www.w3.org/2000/svg">
<linearGradient id="paint0_linear" x1="-4.0" y1="0" x2="0" y2="36" gradientUnits="userSpaceOnUse">
<stop stop-color="#E8D98C"/>
<stop offset="1" stop-color="#CA7D5C"/>
</linearGradient>
<path d="M10.7878 15.229C9.99375 12.96 11.6413 10.4101 14.0653 10.4101C16.4892 10.4101 18.1368 12.96 17.3427 15.229C16.0611 18.8913 14.7884 23.9282 15.7164 27.7204C15.9458 28.6579 16.3543 29.7014 16.8159 30.7063C17.7577 32.7566 16.3389 35.2785 14.0653 35.2785C11.7916 35.2785 10.3729 32.7566 11.3147 30.7063C11.7763 29.7014 12.1847 28.6579 12.4141 27.7204C13.3421 23.9282 12.0695 18.8913 10.7878 15.229Z" fill="url(#paint0_linear)"/>
<path d="M23.4959 24.7154C24.2014 27.0301 22.4892 29.4951 20.0487 29.4951C17.6081 29.4951 15.8959 27.0301 16.6014 24.7153C17.9381 20.3298 19.4424 13.7999 18.4434 8.9642C18.1648 7.61602 17.6198 6.05161 17.0411 4.61068C16.1787 2.46326 17.7159 -2.02048e-07 20.0487 0C22.3814 2.02048e-07 23.9186 2.46326 23.0562 4.61068C22.4775 6.05161 21.9325 7.61602 21.654 8.9642C20.6549 13.7999 22.1592 20.3298 23.4959 24.7154Z" fill="url(#paint0_linear)"/>
<path d="M22.3764 35.2621C20.5728 37.0582 18.0065 35.309 18.7036 32.8714C18.991 31.8665 19.837 31.1205 20.8206 30.7445C22.8152 29.9818 25.768 28.1852 24.5726 24.4346C23.5903 21.3528 22.919 17.9566 22.525 15.6187C22.2659 14.0819 23.4758 12.7234 25.0485 12.7234C27.0213 12.7234 28.4005 14.8622 27.8949 16.7515C27.2997 18.976 26.8586 21.9124 27.3454 25.013C27.9221 28.6862 25.2086 32.4414 22.3764 35.2621Z" fill="url(#paint0_linear)"/>
<path d="M6.26622 35.3127C7.84616 36.3059 9.67921 35.0232 9.5459 33.1741C9.45859 31.9631 8.50759 30.9901 7.33236 30.6463C5.0778 29.9869 1.93373 28.4324 3.12013 25.013C5.33724 18.623 5.18817 13.474 4.88362 10.8993C4.75782 9.8357 3.82527 9.10879 2.74439 9.10879C0.90836 9.1088 -0.39213 11.1732 0.107757 12.9235C0.942634 15.8468 1.60712 20.2972 0.493287 25.7359C-0.40971 30.1452 3.26331 33.4249 6.26622 35.3127Z" fill="url(#paint0_linear)"/>
<path d="M11.1043 24.7617C11.8456 27.0219 10.1889 29.4951 7.79009 29.4951C5.39131 29.4951 3.73462 27.0219 4.47593 24.7617C5.76973 20.8169 7.13495 15.1834 6.1848 10.977C5.9345 9.86893 5.46712 8.61019 4.95348 7.42141C4.05909 5.35143 5.51738 2.89168 7.79009 2.89168C10.0628 2.89168 11.5211 5.35143 10.6267 7.42141C10.1131 8.61019 9.64568 9.86893 9.39538 10.977C8.44523 15.1834 9.81045 20.8169 11.1043 24.7617Z" fill="url(#paint0_linear)"/>
<path d="M40.6421 25.457C40.8023 25.457 40.9155 25.4863 40.982 25.5449C41.0484 25.6035 41.0816 25.7012 41.0816 25.8379V26.9512C41.0816 27.0879 41.0484 27.1855 40.982 27.2441C40.9155 27.3027 40.8023 27.332 40.6421 27.332C40.5093 27.332 40.4155 27.2812 40.3609 27.1797C40.1929 26.8594 39.9487 26.6348 39.6284 26.5059C39.3081 26.373 38.9019 26.3066 38.4097 26.3066C38.0308 26.3066 37.7339 26.375 37.5191 26.5117C37.3081 26.6445 37.2027 26.832 37.2027 27.0742C37.2027 27.1992 37.2417 27.3008 37.3198 27.3789C37.4019 27.457 37.521 27.5215 37.6773 27.5723C37.8062 27.6152 37.9546 27.6484 38.1226 27.6719C38.2945 27.6953 38.5152 27.7207 38.7847 27.748C39.1636 27.791 39.4683 27.832 39.6987 27.8711C39.9331 27.9062 40.1538 27.9609 40.3609 28.0352C40.6734 28.1484 40.9155 28.3125 41.0874 28.5273C41.2632 28.7422 41.3511 29.0254 41.3511 29.377C41.3511 29.7285 41.2612 30.0371 41.0816 30.3027C40.9058 30.5645 40.646 30.7676 40.3023 30.9121C39.9624 31.0566 39.5542 31.1289 39.0777 31.1289C38.6558 31.1289 38.2847 31.0703 37.9644 30.9531C37.6441 30.8359 37.3648 30.6582 37.1265 30.4199V30.748C37.1265 30.8848 37.0933 30.9824 37.0269 31.041C36.9605 31.0996 36.8472 31.1289 36.687 31.1289C36.5269 31.1289 36.4136 31.0996 36.3472 31.041C36.2808 30.9824 36.2476 30.8848 36.2476 30.748V29.3418C36.2476 29.2051 36.2808 29.1074 36.3472 29.0488C36.4136 28.9902 36.5269 28.9609 36.687 28.9609C36.7691 28.9609 36.8335 28.9805 36.8804 29.0195C36.9273 29.0547 36.9683 29.1152 37.0034 29.2012C37.1441 29.5762 37.3784 29.8496 37.7066 30.0215C38.0347 30.1934 38.4722 30.2793 39.0191 30.2793C39.4722 30.2793 39.8198 30.1973 40.062 30.0332C40.3042 29.8691 40.4253 29.6504 40.4253 29.377C40.4253 29.2441 40.3823 29.1348 40.2964 29.0488C40.2105 28.9629 40.0874 28.8926 39.9273 28.8379C39.7905 28.7949 39.6323 28.7598 39.4527 28.7324C39.2769 28.7012 39.0523 28.6719 38.7788 28.6445C38.4116 28.6055 38.105 28.5645 37.8589 28.5215C37.6128 28.4785 37.3862 28.416 37.1792 28.334C36.8941 28.2207 36.6714 28.0645 36.5112 27.8652C36.355 27.6621 36.2769 27.3984 36.2769 27.0742C36.2769 26.7344 36.3648 26.4434 36.5405 26.2012C36.7202 25.9551 36.9663 25.7695 37.2788 25.6445C37.5952 25.5195 37.9527 25.457 38.3511 25.457C38.73 25.457 39.0757 25.5137 39.3882 25.627C39.7046 25.7402 39.9761 25.8984 40.2027 26.1016V25.8379C40.2027 25.7012 40.2359 25.6035 40.3023 25.5449C40.3687 25.4863 40.482 25.457 40.6421 25.457ZM46.7117 25.457C47.2469 25.457 47.7293 25.5781 48.159 25.8203C48.5887 26.0625 48.9246 26.4004 49.1668 26.834C49.4129 27.2637 49.5359 27.75 49.5359 28.293C49.5359 28.8359 49.4129 29.3242 49.1668 29.7578C48.9246 30.1875 48.5887 30.5234 48.159 30.7656C47.7293 31.0078 47.2469 31.1289 46.7117 31.1289C46.1766 31.1289 45.6941 31.0078 45.2645 30.7656C44.8348 30.5234 44.4969 30.1875 44.2508 29.7578C44.0086 29.3242 43.8875 28.8359 43.8875 28.293C43.8875 27.75 44.0086 27.2637 44.2508 26.834C44.4969 26.4004 44.8348 26.0625 45.2645 25.8203C45.6941 25.5781 46.1766 25.457 46.7117 25.457ZM46.7117 26.3242C46.3328 26.3242 45.9988 26.4082 45.7098 26.5762C45.4246 26.7402 45.2039 26.9727 45.0477 27.2734C44.8914 27.5703 44.8133 27.9102 44.8133 28.293C44.8133 28.6758 44.8914 29.0176 45.0477 29.3184C45.2039 29.6152 45.4246 29.8477 45.7098 30.0156C45.9988 30.1797 46.3328 30.2617 46.7117 30.2617C47.0906 30.2617 47.4227 30.1797 47.7078 30.0156C47.9969 29.8477 48.2195 29.6152 48.3758 29.3184C48.532 29.0176 48.6102 28.6758 48.6102 28.293C48.6102 27.9102 48.532 27.5703 48.3758 27.2734C48.2195 26.9727 47.9969 26.7402 47.7078 26.5762C47.4227 26.4082 47.0906 26.3242 46.7117 26.3242ZM55.7169 23.2832C56.2403 23.2832 56.7598 23.3828 57.2755 23.582C57.463 23.6523 57.5567 23.7812 57.5567 23.9688C57.5567 24.0117 57.5509 24.0625 57.5391 24.1211C57.4845 24.3438 57.3868 24.4551 57.2462 24.4551C57.2032 24.4551 57.1563 24.4453 57.1055 24.4258C56.6095 24.2344 56.1466 24.1387 55.7169 24.1387C54.9278 24.1387 54.5333 24.5625 54.5333 25.4102V26.0547H56.5606C56.6934 26.0547 56.7872 26.0859 56.8419 26.1484C56.9005 26.207 56.9298 26.3086 56.9298 26.4531C56.9298 26.5977 56.9005 26.7012 56.8419 26.7637C56.7872 26.8223 56.6934 26.8516 56.5606 26.8516H54.5333V30.2031H56.5606C56.6934 30.2031 56.7872 30.2344 56.8419 30.2969C56.9005 30.3555 56.9298 30.457 56.9298 30.6016C56.9298 30.7461 56.9005 30.8496 56.8419 30.9121C56.7872 30.9707 56.6934 31 56.5606 31H52.4942C52.3614 31 52.2657 30.9707 52.2071 30.9121C52.1524 30.8496 52.1251 30.7461 52.1251 30.6016C52.1251 30.457 52.1524 30.3555 52.2071 30.2969C52.2657 30.2344 52.3614 30.2031 52.4942 30.2031H53.6544V26.8516H52.4942C52.3614 26.8516 52.2657 26.8223 52.2071 26.7637C52.1524 26.7012 52.1251 26.5977 52.1251 26.4531C52.1251 26.3086 52.1524 26.207 52.2071 26.1484C52.2657 26.0859 52.3614 26.0547 52.4942 26.0547H53.6544V25.334C53.6544 24.6895 53.8341 24.1875 54.1934 23.8281C54.5567 23.4648 55.0645 23.2832 55.7169 23.2832ZM61.6283 23.916C61.7884 23.916 61.9017 23.9453 61.9681 24.0039C62.0345 24.0625 62.0677 24.1602 62.0677 24.2969V26.0547H64.4759C64.6087 26.0547 64.7025 26.0859 64.7572 26.1484C64.8158 26.207 64.8451 26.3086 64.8451 26.4531C64.8451 26.5977 64.8158 26.7012 64.7572 26.7637C64.7025 26.8223 64.6087 26.8516 64.4759 26.8516H62.0677V28.9844C62.0677 29.4297 62.1439 29.7559 62.2962 29.9629C62.4525 30.1699 62.722 30.2734 63.1048 30.2734C63.3666 30.2734 63.642 30.2207 63.931 30.1152C64.2201 30.0098 64.4994 29.8691 64.7689 29.6934C64.8236 29.6543 64.8841 29.6348 64.9505 29.6348C65.0834 29.6348 65.1966 29.7246 65.2904 29.9043C65.3412 30.0059 65.3666 30.0938 65.3666 30.168C65.3666 30.293 65.3021 30.3945 65.1732 30.4727C64.8685 30.6641 64.5287 30.8223 64.1537 30.9473C63.7787 31.0684 63.4291 31.1289 63.1048 31.1289C62.4408 31.1289 61.9545 30.957 61.6459 30.6133C61.3412 30.2656 61.1888 29.748 61.1888 29.0605V26.8516H59.9994C59.8666 26.8516 59.7709 26.8223 59.7123 26.7637C59.6576 26.7012 59.6302 26.5977 59.6302 26.4531C59.6302 26.3086 59.6576 26.207 59.7123 26.1484C59.7709 26.0859 59.8666 26.0547 59.9994 26.0547H61.1888V24.2969C61.1888 24.1602 61.222 24.0625 61.2884 24.0039C61.3548 23.9453 61.4681 23.916 61.6283 23.916ZM73.7448 25.5859C73.8776 25.5859 73.9713 25.6172 74.026 25.6797C74.0846 25.7383 74.1139 25.8398 74.1139 25.9844C74.1139 26.1289 74.0846 26.2324 74.026 26.2949C73.9713 26.3535 73.8776 26.3828 73.7448 26.3828H73.6041L72.4498 30.748C72.4108 30.8887 72.3522 30.9863 72.2741 31.041C72.1998 31.0996 72.0885 31.1289 71.9401 31.1289C71.7721 31.1289 71.6393 31.0977 71.5416 31.0352C71.4479 30.9766 71.3776 30.8809 71.3307 30.748L70.4342 28.2051L69.526 30.748C69.4791 30.8809 69.4049 30.9766 69.3034 31.0352C69.2057 31.0977 69.0729 31.1289 68.9049 31.1289C68.7565 31.1289 68.6452 31.0996 68.5709 31.041C68.4967 30.9863 68.442 30.8887 68.4069 30.748L67.276 26.3828H67.1705C67.0377 26.3828 66.942 26.3535 66.8834 26.2949C66.8288 26.2324 66.8014 26.1289 66.8014 25.9844C66.8014 25.8398 66.8288 25.7383 66.8834 25.6797C66.942 25.6172 67.0377 25.5859 67.1705 25.5859H68.8932C69.026 25.5859 69.1198 25.6172 69.1745 25.6797C69.233 25.7383 69.2623 25.8398 69.2623 25.9844C69.2623 26.1289 69.233 26.2324 69.1745 26.2949C69.1198 26.3535 69.026 26.3828 68.8932 26.3828H68.1725L69.0163 29.793L69.9948 27.0742C70.0221 26.9922 70.0729 26.9258 70.1471 26.875C70.2213 26.8242 70.319 26.7988 70.4401 26.7988C70.6862 26.7988 70.8366 26.877 70.8913 27.0332L71.8639 29.793L72.7311 26.3828H72.1393C72.0065 26.3828 71.9108 26.3535 71.8522 26.2949C71.7975 26.2324 71.7702 26.1289 71.7702 25.9844C71.7702 25.8398 71.7975 25.7383 71.8522 25.6797C71.9108 25.6172 72.0065 25.5859 72.1393 25.5859H73.7448ZM78.3964 25.457C79.1308 25.457 79.6816 25.6211 80.0487 25.9492C80.4159 26.2773 80.5995 26.7637 80.5995 27.4082V29.7402C80.5995 30.0488 80.7284 30.2031 80.9862 30.2031H81.1913C81.3241 30.2031 81.4179 30.2344 81.4726 30.2969C81.5312 30.3555 81.5605 30.457 81.5605 30.6016C81.5605 30.7461 81.5312 30.8496 81.4726 30.9121C81.4179 30.9707 81.3241 31 81.1913 31H80.8163C80.5624 31 80.3437 30.9375 80.1601 30.8125C79.9804 30.6836 79.8632 30.4961 79.8085 30.25C79.4882 30.5312 79.1405 30.748 78.7655 30.9004C78.3945 31.0527 77.9999 31.1289 77.582 31.1289C77.1874 31.1289 76.8378 31.0625 76.5331 30.9297C76.2323 30.793 75.996 30.5957 75.8241 30.3379C75.6523 30.0801 75.5663 29.7734 75.5663 29.418C75.5663 28.8008 75.787 28.3457 76.2284 28.0527C76.6698 27.7559 77.2402 27.6074 77.9394 27.6074C78.5605 27.6074 79.1542 27.707 79.7206 27.9062V27.4082C79.7206 27.0293 79.6132 26.752 79.3984 26.5762C79.1874 26.3965 78.8456 26.3066 78.373 26.3066C78.08 26.3066 77.7753 26.3477 77.4589 26.4297C77.1425 26.5117 76.8417 26.625 76.5566 26.7695C76.4902 26.8047 76.4296 26.8223 76.3749 26.8223C76.246 26.8223 76.1386 26.7285 76.0527 26.541C76.0097 26.4473 75.9882 26.3691 75.9882 26.3066C75.9882 26.1699 76.0605 26.0645 76.205 25.9902C76.5331 25.8184 76.8847 25.6875 77.2597 25.5977C77.6386 25.5039 78.0175 25.457 78.3964 25.457ZM77.9452 28.4336C77.496 28.4336 77.1405 28.5117 76.8788 28.668C76.621 28.8203 76.4921 29.0645 76.4921 29.4004C76.4921 29.6855 76.5898 29.9082 76.7851 30.0684C76.9843 30.2246 77.2616 30.3027 77.6171 30.3027C78.3945 30.3027 79.0956 29.9805 79.7206 29.3359V28.6973C79.455 28.6113 79.1698 28.5469 78.8652 28.5039C78.5605 28.457 78.2538 28.4336 77.9452 28.4336ZM88.0812 25.457C88.3859 25.457 88.6711 25.5352 88.9367 25.6914C89.093 25.7852 89.1711 25.9062 89.1711 26.0547C89.1711 26.125 89.1535 26.207 89.1184 26.3008C89.0363 26.5234 88.923 26.6348 88.7785 26.6348C88.7199 26.6348 88.6652 26.6191 88.6145 26.5879C88.423 26.4824 88.218 26.4297 87.9992 26.4297C87.6477 26.4297 87.2941 26.5527 86.9387 26.7988C86.5832 27.041 86.2902 27.3652 86.0598 27.7715C85.8332 28.1777 85.7199 28.6094 85.7199 29.0664V30.2031H87.6945C87.8273 30.2031 87.9211 30.2344 87.9758 30.2969C88.0344 30.3555 88.0637 30.457 88.0637 30.6016C88.0637 30.7461 88.0344 30.8496 87.9758 30.9121C87.9211 30.9707 87.8273 31 87.6945 31H83.9211C83.7883 31 83.6926 30.9707 83.634 30.9121C83.5793 30.8496 83.552 30.7461 83.552 30.6016C83.552 30.457 83.5793 30.3555 83.634 30.2969C83.6926 30.2344 83.7883 30.2031 83.9211 30.2031H84.841V26.3828H84.0969C83.9641 26.3828 83.8684 26.3535 83.8098 26.2949C83.7551 26.2324 83.7277 26.1289 83.7277 25.9844C83.7277 25.8398 83.7551 25.7383 83.8098 25.6797C83.8684 25.6172 83.9641 25.5859 84.0969 25.5859H85.2922C85.425 25.5859 85.5187 25.6172 85.5734 25.6797C85.632 25.7383 85.6613 25.8398 85.6613 25.9844V27.168C85.8488 26.8242 86.0754 26.5234 86.341 26.2656C86.6066 26.0078 86.8898 25.8086 87.1906 25.668C87.4914 25.5273 87.7883 25.457 88.0812 25.457ZM94.2563 25.457C94.8227 25.457 95.3052 25.5723 95.7036 25.8027C96.1059 26.0293 96.4145 26.3457 96.6294 26.752C96.8442 27.1543 96.9673 27.6191 96.9985 28.1465C96.9985 28.2793 96.9692 28.373 96.9106 28.4277C96.8559 28.4824 96.7622 28.5098 96.6294 28.5098H92.3872C92.4145 29.0918 92.5864 29.5332 92.9028 29.834C93.2231 30.1309 93.6743 30.2793 94.2563 30.2793C94.6157 30.2793 94.9712 30.2344 95.3227 30.1445C95.6743 30.0508 95.9829 29.9277 96.2485 29.7754C96.3149 29.7402 96.3755 29.7227 96.4302 29.7227C96.5669 29.7227 96.6782 29.8262 96.7641 30.0332C96.7993 30.1152 96.8169 30.1895 96.8169 30.2559C96.8169 30.4121 96.7309 30.5332 96.5591 30.6191C96.2583 30.7715 95.9028 30.8945 95.4927 30.9883C95.0825 31.082 94.6704 31.1289 94.2563 31.1289C93.6665 31.1289 93.1626 31.0156 92.7446 30.7891C92.3266 30.5625 92.0083 30.2363 91.7895 29.8105C91.5708 29.3848 91.4614 28.8789 91.4614 28.293C91.4614 27.7344 91.5805 27.2402 91.8188 26.8105C92.0571 26.3809 92.3872 26.0488 92.8091 25.8145C93.2309 25.5762 93.7134 25.457 94.2563 25.457ZM94.2563 26.3066C93.7759 26.3066 93.3774 26.4297 93.061 26.6758C92.7485 26.918 92.5434 27.2559 92.4458 27.6895H96.0259C95.9438 27.2402 95.7544 26.8984 95.4575 26.6641C95.1645 26.4258 94.7641 26.3066 94.2563 26.3066Z" fill="black"/>
<path d="M40.5195 6.4082C41.5417 6.4082 42.4401 6.64258 43.2148 7.11133C43.9896 7.57357 44.5885 8.24414 45.0117 9.12305C45.4414 9.99544 45.6562 11.0241 45.6562 12.209C45.6562 13.3939 45.4414 14.4225 45.0117 15.2949C44.5885 16.1673 43.9896 16.8379 43.2148 17.3066C42.4401 17.7689 41.5417 18 40.5195 18H35.9199C35.6986 18 35.5391 17.9512 35.4414 17.8535C35.3503 17.7493 35.3047 17.5768 35.3047 17.3359C35.3047 17.0951 35.3503 16.9258 35.4414 16.8281C35.5391 16.724 35.6986 16.6719 35.9199 16.6719H37.0137V7.73633H35.9199C35.6986 7.73633 35.5391 7.6875 35.4414 7.58984C35.3503 7.48568 35.3047 7.31315 35.3047 7.07227C35.3047 6.83138 35.3503 6.66211 35.4414 6.56445C35.5391 6.46029 35.6986 6.4082 35.9199 6.4082H40.5195ZM38.4785 16.6719H40.2949C41.0697 16.6719 41.7435 16.5026 42.3164 16.1641C42.8893 15.819 43.332 15.3145 43.6445 14.6504C43.957 13.9798 44.1133 13.166 44.1133 12.209C44.1133 11.252 43.957 10.4414 43.6445 9.77734C43.332 9.10677 42.8893 8.59896 42.3164 8.25391C41.7435 7.90885 41.0697 7.73633 40.2949 7.73633H38.4785V16.6719ZM55.5996 8.76172C56.5436 8.76172 57.3477 8.95378 58.0117 9.33789C58.6823 9.71549 59.1966 10.2428 59.5547 10.9199C59.9128 11.5905 60.1178 12.3652 60.1699 13.2441C60.1699 13.4655 60.1211 13.6217 60.0234 13.7129C59.9323 13.804 59.776 13.8496 59.5547 13.8496H52.4844C52.5299 14.8197 52.8164 15.5553 53.3438 16.0566C53.8776 16.5514 54.6296 16.7988 55.5996 16.7988C56.1986 16.7988 56.791 16.724 57.377 16.5742C57.9629 16.418 58.4772 16.2129 58.9199 15.959C59.0306 15.9004 59.1315 15.8711 59.2227 15.8711C59.4505 15.8711 59.6361 16.0436 59.7793 16.3887C59.8379 16.5254 59.8672 16.6491 59.8672 16.7598C59.8672 17.0202 59.724 17.222 59.4375 17.3652C58.9362 17.6191 58.3438 17.8242 57.6602 17.9805C56.9766 18.1367 56.2897 18.2148 55.5996 18.2148C54.6165 18.2148 53.7767 18.026 53.0801 17.6484C52.3835 17.2708 51.8529 16.7272 51.4883 16.0176C51.1237 15.3079 50.9414 14.4648 50.9414 13.4883C50.9414 12.5573 51.14 11.7337 51.5371 11.0176C51.9342 10.3014 52.4844 9.74805 53.1875 9.35742C53.8906 8.96029 54.6947 8.76172 55.5996 8.76172ZM55.5996 10.1777C54.7988 10.1777 54.1348 10.3828 53.6074 10.793C53.0866 11.1966 52.7448 11.7598 52.582 12.4824H58.5488C58.4121 11.7337 58.0964 11.1641 57.6016 10.7734C57.1133 10.3763 56.446 10.1777 55.5996 10.1777ZM75.3965 8.97656C75.6178 8.97656 75.7741 9.02865 75.8652 9.13281C75.9629 9.23047 76.0117 9.39974 76.0117 9.64062C76.0117 9.88151 75.9629 10.054 75.8652 10.1582C75.7741 10.2559 75.6178 10.3047 75.3965 10.3047H74.7812L71.627 17.5801C71.5358 17.8014 71.3991 17.9609 71.2168 18.0586C71.041 18.1628 70.7936 18.2148 70.4746 18.2148C70.1621 18.2148 69.918 18.1628 69.7422 18.0586C69.5729 17.9609 69.4395 17.8014 69.3418 17.5801L66.2168 10.3047H65.6113C65.39 10.3047 65.2305 10.2559 65.1328 10.1582C65.0417 10.054 64.9961 9.88151 64.9961 9.64062C64.9961 9.39974 65.0417 9.23047 65.1328 9.13281C65.2305 9.02865 65.39 8.97656 65.6113 8.97656H69.0684C69.2897 8.97656 69.446 9.02865 69.5371 9.13281C69.6348 9.23047 69.6836 9.39974 69.6836 9.64062C69.6836 9.88151 69.6348 10.054 69.5371 10.1582C69.446 10.2559 69.2897 10.3047 69.0684 10.3047H67.8184L70.4844 16.6719L73.1797 10.3047H72.3301C72.1087 10.3047 71.9492 10.2559 71.8516 10.1582C71.7604 10.054 71.7148 9.88151 71.7148 9.64062C71.7148 9.39974 71.7604 9.23047 71.8516 9.13281C71.9492 9.02865 72.1087 8.97656 72.3301 8.97656H75.3965ZM90.3887 8.97656C90.61 8.97656 90.7663 9.02865 90.8574 9.13281C90.9551 9.23047 91.0039 9.39974 91.0039 9.64062C91.0039 9.88151 90.9551 10.054 90.8574 10.1582C90.7663 10.2559 90.61 10.3047 90.3887 10.3047H89.7832L85.7891 18.4883C85.3659 19.3542 84.9525 20.0345 84.5488 20.5293C84.1452 21.0241 83.6895 21.3854 83.1816 21.6133C82.6803 21.8477 82.0684 21.9779 81.3457 22.0039C81.1178 22.0104 80.9421 21.9518 80.8184 21.8281C80.6947 21.7109 80.6328 21.4993 80.6328 21.1934C80.6328 20.7702 80.8053 20.5488 81.1504 20.5293C81.7754 20.4967 82.2702 20.3926 82.6348 20.2168C83.0059 20.041 83.3444 19.7383 83.6504 19.3086C83.9629 18.8854 84.3438 18.2214 84.793 17.3164L81.2188 10.3047H80.6035C80.3822 10.3047 80.2227 10.2559 80.125 10.1582C80.0339 10.054 79.9883 9.88151 79.9883 9.64062C79.9883 9.39974 80.0339 9.23047 80.125 9.13281C80.2227 9.02865 80.3822 8.97656 80.6035 8.97656H84.0605C84.2819 8.97656 84.4382 9.02865 84.5293 9.13281C84.627 9.23047 84.6758 9.39974 84.6758 9.64062C84.6758 9.88151 84.627 10.054 84.5293 10.1582C84.4382 10.2559 84.2819 10.3047 84.0605 10.3047H82.8105L85.5645 15.793L88.1914 10.3047H87.3223C87.1009 10.3047 86.9414 10.2559 86.8438 10.1582C86.7526 10.054 86.707 9.88151 86.707 9.64062C86.707 9.39974 86.7526 9.23047 86.8438 9.13281C86.9414 9.02865 87.1009 8.97656 87.3223 8.97656H90.3887ZM101.592 8.76172C102.184 8.76172 102.699 8.89193 103.135 9.15234C103.571 9.40625 103.906 9.77409 104.141 10.2559C104.375 10.7376 104.492 11.3008 104.492 11.9453V16.6719H105.293C105.514 16.6719 105.671 16.724 105.762 16.8281C105.859 16.9258 105.908 17.0951 105.908 17.3359C105.908 17.5768 105.859 17.7493 105.762 17.8535C105.671 17.9512 105.514 18 105.293 18H102.129C101.908 18 101.748 17.9512 101.65 17.8535C101.559 17.7493 101.514 17.5768 101.514 17.3359C101.514 17.0951 101.559 16.9258 101.65 16.8281C101.748 16.724 101.908 16.6719 102.129 16.6719H103.027V12.0918C103.027 11.5124 102.894 11.0534 102.627 10.7148C102.36 10.3763 101.966 10.207 101.445 10.207C100.892 10.207 100.374 10.3665 99.8926 10.6855C99.4173 11.0046 99.0365 11.444 98.75 12.0039C98.4635 12.5638 98.3203 13.1888 98.3203 13.8789V16.6719H99.2188C99.4401 16.6719 99.5964 16.724 99.6875 16.8281C99.7852 16.9258 99.834 17.0951 99.834 17.3359C99.834 17.5768 99.7852 17.7493 99.6875 17.8535C99.5964 17.9512 99.4401 18 99.2188 18H96.0547C95.8333 18 95.6738 17.9512 95.5762 17.8535C95.485 17.7493 95.4395 17.5768 95.4395 17.3359C95.4395 17.0951 95.485 16.9258 95.5762 16.8281C95.6738 16.724 95.8333 16.6719 96.0547 16.6719H96.8555V10.3047H95.8594C95.638 10.3047 95.4785 10.2559 95.3809 10.1582C95.2897 10.054 95.2441 9.88151 95.2441 9.64062C95.2441 9.39974 95.2897 9.23047 95.3809 9.13281C95.4785 9.02865 95.638 8.97656 95.8594 8.97656H97.6074C97.8288 8.97656 97.985 9.02865 98.0762 9.13281C98.1738 9.23047 98.2227 9.39974 98.2227 9.64062V10.8125C98.6523 10.1484 99.1536 9.64062 99.7266 9.28906C100.306 8.9375 100.928 8.76172 101.592 8.76172ZM115.568 8.76172C116.512 8.76172 117.316 8.95378 117.98 9.33789C118.651 9.71549 119.165 10.2428 119.523 10.9199C119.882 11.5905 120.087 12.3652 120.139 13.2441C120.139 13.4655 120.09 13.6217 119.992 13.7129C119.901 13.804 119.745 13.8496 119.523 13.8496H112.453C112.499 14.8197 112.785 15.5553 113.312 16.0566C113.846 16.5514 114.598 16.7988 115.568 16.7988C116.167 16.7988 116.76 16.724 117.346 16.5742C117.932 16.418 118.446 16.2129 118.889 15.959C118.999 15.9004 119.1 15.8711 119.191 15.8711C119.419 15.8711 119.605 16.0436 119.748 16.3887C119.807 16.5254 119.836 16.6491 119.836 16.7598C119.836 17.0202 119.693 17.222 119.406 17.3652C118.905 17.6191 118.312 17.8242 117.629 17.9805C116.945 18.1367 116.258 18.2148 115.568 18.2148C114.585 18.2148 113.745 18.026 113.049 17.6484C112.352 17.2708 111.822 16.7272 111.457 16.0176C111.092 15.3079 110.91 14.4648 110.91 13.4883C110.91 12.5573 111.109 11.7337 111.506 11.0176C111.903 10.3014 112.453 9.74805 113.156 9.35742C113.859 8.96029 114.663 8.76172 115.568 8.76172ZM115.568 10.1777C114.768 10.1777 114.104 10.3828 113.576 10.793C113.055 11.1966 112.714 11.7598 112.551 12.4824H118.518C118.381 11.7337 118.065 11.1641 117.57 10.7734C117.082 10.3763 116.415 10.1777 115.568 10.1777Z" fill="black"/>
<defs>
</defs>
</svg>
