<svg width="32" height="49" viewBox="0 0 32 49" fill="none" xmlns="http://www.w3.org/2000/svg">
<g clip-path="url(#clip0)">
<path fill-rule="evenodd" clip-rule="evenodd" d="M15.615 18.2446C20.6531 18.2446 24.7373 14.1604 24.7373 9.12229C24.7373 4.08419 20.6531 0 15.615 0C10.5769 0 6.49271 4.08419 6.49271 9.12229C6.49271 14.1604 10.5769 18.2446 15.615 18.2446ZM1.10835 41.1803C2.62006 32.7326 6.42441 20.6242 15.8132 20.6242C25.2019 20.6242 29.0063 32.7326 30.518 41.1803C31.2925 45.5084 27.8101 49.1809 23.4132 49.1809H8.21308C3.81624 49.1809 0.333842 45.5084 1.10835 41.1803Z" fill="#ADD19D"/>
<rect x="14" y="29" width="4" height="15" fill="white"/>
<rect x="23.5" y="34.5" width="4" height="15" transform="rotate(90 23.5 34.5)" fill="white"/>
</g>
<defs>
<clipPath id="clip0">
<rect width="32" height="49" fill="white"/>
</clipPath>
</defs>
</svg>
