<svg width="64" height="62" viewBox="0 0 64 62" fill="none" xmlns="http://www.w3.org/2000/svg">
<g clip-path="url(#clip0)">
<path d="M5.19547 33.0878L39.6275 13.2085C40.3724 12.7784 41.2633 12.6791 42.0846 12.9348L56.5027 17.423C58.0369 17.9005 58.9468 19.4766 58.5933 21.044L55.2711 35.7745C55.0819 36.6136 54.5505 37.3355 53.8055 37.7656L19.3735 57.645C17.8994 58.4961 16.0143 57.991 15.1632 56.5168L4.06731 37.2981C3.21618 35.824 3.72128 33.9389 5.19547 33.0878Z" fill="#EED7C2" stroke="#BDA88F" stroke-width="3.69863"/>
<path d="M8.01368 47.8321L56.5216 19.8261C58.3831 18.7513 60.6327 20.4071 60.1598 22.504L57.0751 36.1813C56.7723 37.524 55.9221 38.679 54.7302 39.3672L20.2982 59.2465C17.9395 60.6083 14.9234 59.8001 13.5616 57.4414L8.01368 47.8321Z" fill="white" fill-opacity="0.2"/>
<path d="M50.4136 22.6407C51.9456 25.2943 51.0364 28.6873 48.3829 30.2194C45.7293 31.7514 42.3363 30.8422 40.8042 28.1887C39.2722 25.5351 40.1814 22.1421 42.8349 20.61C45.4885 19.078 48.8815 19.9872 50.4136 22.6407ZM43.8289 26.4424C44.3965 27.4254 45.6535 27.7622 46.6366 27.1947C47.6196 26.6271 47.9565 25.3701 47.3889 24.387C46.8213 23.404 45.5643 23.0671 44.5812 23.6347C43.5982 24.2023 43.2614 25.4593 43.8289 26.4424Z" fill="#BDA88F"/>
<path d="M46.3354 23.714C45.3961 23.3128 44.3095 23.749 43.9083 24.6882C43.5071 25.6275 43.9433 26.7141 44.8825 27.1154L46.3354 23.714ZM59.753 7.99518L57.9037 8.00342L59.753 7.99518ZM53.6108 2.288L53.5509 4.13635L53.5509 4.13635L53.6108 2.288ZM44.8825 27.1154C46.9755 28.0094 49.1703 27.5872 51.0666 26.605C52.9595 25.6246 54.7446 24.0028 56.2669 22.0959C59.2929 18.3056 61.6244 12.9476 61.6023 7.98695L57.9037 8.00342C57.9212 11.9206 56.0151 16.4831 53.3764 19.7884C52.0664 21.4293 50.6623 22.6492 49.3656 23.3208C48.0722 23.9906 47.0768 24.0307 46.3354 23.714L44.8825 27.1154ZM61.6023 7.98695C61.5949 6.31179 60.6743 4.48607 59.3836 3.11792C58.0481 1.70226 56.0783 0.517711 53.6707 0.439659L53.5509 4.13635C54.7702 4.17588 55.8668 4.77996 56.6933 5.65601C57.5646 6.57957 57.9017 7.54865 57.9037 8.00342L61.6023 7.98695ZM53.6707 0.439659C50.7613 0.345338 48.2748 1.89581 46.432 3.94005C44.58 5.99446 43.2033 8.72193 42.4629 11.4851L46.0355 12.4423C46.6489 10.1531 47.7769 7.97213 49.1792 6.41651C50.5906 4.85074 52.108 4.08957 53.5509 4.13635L53.6707 0.439659Z" fill="#5C574A"/>
<rect x="9.04773" y="37.0198" width="22.1918" height="4.93151" rx="2.46575" transform="rotate(-30 9.04773 37.0198)" fill="white" fill-opacity="0.56"/>
<rect x="13.3627" y="44.4937" width="14.7945" height="4.93151" rx="2.46575" transform="rotate(-30 13.3627 44.4937)" fill="white" fill-opacity="0.56"/>
</g>
<defs>
<clipPath id="clip0">
<rect width="63.6986" height="62" fill="white"/>
</clipPath>
</defs>
</svg>
